<svg width="119" height="157" viewBox="0 0 119 157" fill="none" xmlns="http://www.w3.org/2000/svg">
<path d="M119 99.8842C119 131.429 92.3632 157 59.5056 157C26.6465 157 0 131.429 0 99.8842C0 96.563 0.659728 92.7599 1.83919 88.6232C9.33431 62.3445 37.8312 22.3456 51.7547 3.80908C55.573 -1.27303 63.4398 -1.2684 67.2566 3.81525C79.8831 20.6295 104.489 55.0905 114.552 80.963C117.335 88.1042 119 94.5966 119 99.8842Z" fill="#AC2221"/>
<path opacity="0.3" d="M119 99.8842C119 131.429 92.3632 157 59.5056 157C26.6465 157 0 131.429 0 99.8842C0 96.563 0.659728 92.7599 1.83919 88.6232C4.84979 96.6078 9.32466 103.944 15.6661 109.837C21.3478 115.134 28.2926 119.051 35.5592 122.074C50.6299 128.329 68.391 130.7 83.3426 124.183C100.618 116.663 110.61 98.9095 114.554 80.963C117.335 88.1042 119 94.5966 119 99.8842Z" fill="#771415"/>
<path opacity="0.13" d="M29.8646 53.1921C29.7842 56.3077 30.7706 59.1995 33.9051 61.2045C40.2996 65.2949 48.9211 60.185 53.2624 55.5277C59.8741 48.4328 63.2564 39.4055 62.6289 30.5296C61.9724 21.2489 52.3114 17.7146 44.6843 24.7029C39.5111 29.4421 35.5978 35.3939 33.0394 41.7874C31.7167 45.09 29.9644 49.3148 29.8646 53.1921Z" fill="white"/>
</svg>
